<svg width="107" height="19" viewBox="0 0 107 19" fill="none" xmlns="http://www.w3.org/2000/svg">
<path d="M19.748 0.647999V18H16.904V6.792C16.904 6.344 16.928 5.86 16.976 5.34L11.732 15.192C11.484 15.664 11.104 15.9 10.592 15.9H10.136C9.624 15.9 9.244 15.664 8.996 15.192L3.692 5.304C3.716 5.568 3.736 5.828 3.752 6.084C3.768 6.34 3.776 6.576 3.776 6.792V18H0.932V0.647999H3.368C3.512 0.647999 3.636 0.651999 3.74 0.659999C3.844 0.667999 3.936 0.687999 4.016 0.719999C4.104 0.751999 4.18 0.803999 4.244 0.875999C4.316 0.947999 4.384 1.044 4.448 1.164L9.644 10.8C9.78 11.056 9.904 11.32 10.016 11.592C10.136 11.864 10.252 12.144 10.364 12.432C10.476 12.136 10.592 11.852 10.712 11.58C10.832 11.3 10.96 11.032 11.096 10.776L16.22 1.164C16.284 1.044 16.352 0.947999 16.424 0.875999C16.496 0.803999 16.572 0.751999 16.652 0.719999C16.74 0.687999 16.836 0.667999 16.94 0.659999C17.044 0.651999 17.168 0.647999 17.312 0.647999H19.748ZM29.3508 12.744C28.4948 12.784 27.7748 12.86 27.1908 12.972C26.6068 13.076 26.1388 13.212 25.7868 13.38C25.4348 13.548 25.1828 13.744 25.0308 13.968C24.8788 14.192 24.8028 14.436 24.8028 14.7C24.8028 15.22 24.9548 15.592 25.2588 15.816C25.5708 16.04 25.9748 16.152 26.4708 16.152C27.0788 16.152 27.6028 16.044 28.0428 15.828C28.4908 15.604 28.9268 15.268 29.3508 14.82V12.744ZM22.5588 7.404C23.9748 6.108 25.6788 5.46 27.6708 5.46C28.3908 5.46 29.0348 5.58 29.6028 5.82C30.1708 6.052 30.6508 6.38 31.0428 6.804C31.4348 7.22 31.7308 7.72 31.9308 8.304C32.1388 8.888 32.2428 9.528 32.2428 10.224V18H30.8988C30.6188 18 30.4028 17.96 30.2508 17.88C30.0988 17.792 29.9788 17.62 29.8908 17.364L29.6268 16.476C29.3148 16.756 29.0108 17.004 28.7148 17.22C28.4188 17.428 28.1108 17.604 27.7908 17.748C27.4708 17.892 27.1268 18 26.7588 18.072C26.3988 18.152 25.9988 18.192 25.5588 18.192C25.0388 18.192 24.5588 18.124 24.1188 17.988C23.6788 17.844 23.2988 17.632 22.9788 17.352C22.6588 17.072 22.4108 16.724 22.2348 16.308C22.0588 15.892 21.9708 15.408 21.9708 14.856C21.9708 14.544 22.0228 14.236 22.1268 13.932C22.2308 13.62 22.3988 13.324 22.6308 13.044C22.8708 12.764 23.1788 12.5 23.5548 12.252C23.9308 12.004 24.3908 11.788 24.9348 11.604C25.4868 11.42 26.1268 11.272 26.8548 11.16C27.5828 11.04 28.4148 10.968 29.3508 10.944V10.224C29.3508 9.4 29.1748 8.792 28.8228 8.4C28.4708 8 27.9628 7.8 27.2988 7.8C26.8188 7.8 26.4188 7.856 26.0988 7.968C25.7868 8.08 25.5108 8.208 25.2708 8.352C25.0308 8.488 24.8108 8.612 24.6108 8.724C24.4188 8.836 24.2028 8.892 23.9628 8.892C23.7548 8.892 23.5788 8.84 23.4348 8.736C23.2908 8.624 23.1748 8.496 23.0868 8.352L22.5588 7.404ZM37.8303 7.824C38.2143 7.088 38.6703 6.512 39.1983 6.096C39.7263 5.672 40.3503 5.46 41.0703 5.46C41.6383 5.46 42.0943 5.584 42.4383 5.832L42.2463 8.052C42.2063 8.196 42.1463 8.3 42.0663 8.364C41.9943 8.42 41.8943 8.448 41.7663 8.448C41.6463 8.448 41.4663 8.428 41.2263 8.388C40.9943 8.348 40.7663 8.328 40.5423 8.328C40.2143 8.328 39.9223 8.376 39.6663 8.472C39.4103 8.568 39.1783 8.708 38.9703 8.892C38.7703 9.068 38.5903 9.284 38.4303 9.54C38.2783 9.796 38.1343 10.088 37.9983 10.416V18H35.0343V5.688H36.7743C37.0783 5.688 37.2903 5.744 37.4103 5.856C37.5303 5.96 37.6103 6.152 37.6503 6.432L37.8303 7.824ZM46.9514 0.167999V10.38H47.5034C47.7034 10.38 47.8594 10.356 47.9714 10.308C48.0914 10.252 48.2114 10.144 48.3314 9.984L51.3914 6.204C51.5194 6.036 51.6594 5.908 51.8114 5.82C51.9714 5.732 52.1754 5.688 52.4234 5.688H55.1354L51.3074 10.26C51.0354 10.62 50.7394 10.896 50.4194 11.088C50.5874 11.208 50.7354 11.348 50.8634 11.508C50.9994 11.668 51.1274 11.84 51.2474 12.024L55.3514 18H52.6754C52.4434 18 52.2434 17.964 52.0754 17.892C51.9074 17.812 51.7674 17.672 51.6554 17.472L48.5114 12.804C48.3994 12.62 48.2834 12.5 48.1634 12.444C48.0434 12.388 47.8634 12.36 47.6234 12.36H46.9514V18H43.9874V0.167999H46.9514ZM64.1069 10.428C64.1069 10.044 64.0509 9.684 63.9389 9.348C63.8349 9.004 63.6749 8.704 63.4589 8.448C63.2429 8.192 62.9669 7.992 62.6309 7.848C62.3029 7.696 61.9189 7.62 61.4789 7.62C60.6229 7.62 59.9469 7.864 59.4509 8.352C58.9629 8.84 58.6509 9.532 58.5149 10.428H64.1069ZM58.4549 12.216C58.5029 12.848 58.6149 13.396 58.7909 13.86C58.9669 14.316 59.1989 14.696 59.4869 15C59.7749 15.296 60.1149 15.52 60.5069 15.672C60.9069 15.816 61.3469 15.888 61.8269 15.888C62.3069 15.888 62.7189 15.832 63.0629 15.72C63.4149 15.608 63.7189 15.484 63.9749 15.348C64.2389 15.212 64.4669 15.088 64.6589 14.976C64.8589 14.864 65.0509 14.808 65.2349 14.808C65.4829 14.808 65.6669 14.9 65.7869 15.084L66.6389 16.164C66.3109 16.548 65.9429 16.872 65.5349 17.136C65.1269 17.392 64.6989 17.6 64.2509 17.76C63.8109 17.912 63.3589 18.02 62.8949 18.084C62.4389 18.148 61.9949 18.18 61.5629 18.18C60.7069 18.18 59.9109 18.04 59.1749 17.76C58.4389 17.472 57.7989 17.052 57.2549 16.5C56.7109 15.94 56.2829 15.252 55.9709 14.436C55.6589 13.612 55.5029 12.66 55.5029 11.58C55.5029 10.74 55.6389 9.952 55.9109 9.216C56.1829 8.472 56.5709 7.828 57.0749 7.284C57.5869 6.732 58.2069 6.296 58.9349 5.976C59.6709 5.656 60.4989 5.496 61.4189 5.496C62.1949 5.496 62.9109 5.62 63.5669 5.868C64.2229 6.116 64.7869 6.48 65.2589 6.96C65.7309 7.432 66.0989 8.016 66.3629 8.712C66.6349 9.4 66.7709 10.188 66.7709 11.076C66.7709 11.524 66.7229 11.828 66.6269 11.988C66.5309 12.14 66.3469 12.216 66.0749 12.216H58.4549ZM81.2981 18H78.3341V7.908H72.6221V14.58C72.6221 14.964 72.7141 15.264 72.8981 15.48C73.0901 15.696 73.3501 15.804 73.6781 15.804C73.8621 15.804 74.0141 15.784 74.1341 15.744C74.2621 15.696 74.3701 15.648 74.4581 15.6C74.5541 15.552 74.6381 15.508 74.7101 15.468C74.7821 15.42 74.8541 15.396 74.9261 15.396C75.0141 15.396 75.0861 15.42 75.1421 15.468C75.1981 15.508 75.2581 15.572 75.3221 15.66L76.2101 17.1C75.7781 17.46 75.2821 17.732 74.7221 17.916C74.1621 18.1 73.5821 18.192 72.9821 18.192C71.9101 18.192 71.0861 17.892 70.5101 17.292C69.9421 16.684 69.6581 15.848 69.6581 14.784V7.908H68.3981C68.2381 7.908 68.1021 7.856 67.9901 7.752C67.8781 7.648 67.8221 7.492 67.8221 7.284V6.108L69.8021 5.772L70.4261 2.424C70.4661 2.264 70.5421 2.14 70.6541 2.052C70.7661 1.964 70.9101 1.92 71.0861 1.92H72.6221V5.796H81.2981V18ZM81.8141 2.052C81.8141 2.308 81.7621 2.552 81.6581 2.784C81.5541 3.008 81.4141 3.204 81.2381 3.372C81.0701 3.54 80.8661 3.676 80.6261 3.78C80.3941 3.876 80.1461 3.924 79.8821 3.924C79.6261 3.924 79.3861 3.876 79.1621 3.78C78.9381 3.676 78.7421 3.54 78.5741 3.372C78.4061 3.204 78.2701 3.008 78.1661 2.784C78.0701 2.552 78.0221 2.308 78.0221 2.052C78.0221 1.788 78.0701 1.544 78.1661 1.32C78.2701 1.088 78.4061 0.888 78.5741 0.719999C78.7421 0.544 78.9381 0.408 79.1621 0.311999C79.3861 0.207999 79.6261 0.155999 79.8821 0.155999C80.1461 0.155999 80.3941 0.207999 80.6261 0.311999C80.8661 0.408 81.0701 0.544 81.2381 0.719999C81.4141 0.888 81.5541 1.088 81.6581 1.32C81.7621 1.544 81.8141 1.788 81.8141 2.052ZM87.2874 0.167999V10.38H87.8394C88.0394 10.38 88.1954 10.356 88.3074 10.308C88.4274 10.252 88.5474 10.144 88.6674 9.984L91.7274 6.204C91.8554 6.036 91.9954 5.908 92.1474 5.82C92.3074 5.732 92.5114 5.688 92.7594 5.688H95.4714L91.6434 10.26C91.3714 10.62 91.0754 10.896 90.7554 11.088C90.9234 11.208 91.0714 11.348 91.1994 11.508C91.3354 11.668 91.4634 11.84 91.5834 12.024L95.6874 18H93.0114C92.7794 18 92.5794 17.964 92.4114 17.892C92.2434 17.812 92.1034 17.672 91.9914 17.472L88.8474 12.804C88.7354 12.62 88.6194 12.5 88.4994 12.444C88.3794 12.388 88.1994 12.36 87.9594 12.36H87.2874V18H84.3234V0.167999H87.2874ZM103.648 12.744C102.792 12.784 102.072 12.86 101.488 12.972C100.904 13.076 100.436 13.212 100.084 13.38C99.7317 13.548 99.4797 13.744 99.3277 13.968C99.1757 14.192 99.0997 14.436 99.0997 14.7C99.0997 15.22 99.2517 15.592 99.5557 15.816C99.8677 16.04 100.272 16.152 100.768 16.152C101.376 16.152 101.9 16.044 102.34 15.828C102.788 15.604 103.224 15.268 103.648 14.82V12.744ZM96.8557 7.404C98.2717 6.108 99.9757 5.46 101.968 5.46C102.688 5.46 103.332 5.58 103.9 5.82C104.468 6.052 104.948 6.38 105.34 6.804C105.732 7.22 106.028 7.72 106.228 8.304C106.436 8.888 106.54 9.528 106.54 10.224V18H105.196C104.916 18 104.7 17.96 104.548 17.88C104.396 17.792 104.276 17.62 104.188 17.364L103.924 16.476C103.612 16.756 103.308 17.004 103.012 17.22C102.716 17.428 102.408 17.604 102.088 17.748C101.768 17.892 101.424 18 101.056 18.072C100.696 18.152 100.296 18.192 99.8557 18.192C99.3357 18.192 98.8557 18.124 98.4157 17.988C97.9757 17.844 97.5957 17.632 97.2757 17.352C96.9557 17.072 96.7077 16.724 96.5317 16.308C96.3557 15.892 96.2677 15.408 96.2677 14.856C96.2677 14.544 96.3197 14.236 96.4237 13.932C96.5277 13.62 96.6957 13.324 96.9277 13.044C97.1677 12.764 97.4757 12.5 97.8517 12.252C98.2277 12.004 98.6877 11.788 99.2317 11.604C99.7837 11.42 100.424 11.272 101.152 11.16C101.88 11.04 102.712 10.968 103.648 10.944V10.224C103.648 9.4 103.472 8.792 103.12 8.4C102.768 8 102.26 7.8 101.596 7.8C101.116 7.8 100.716 7.856 100.396 7.968C100.084 8.08 99.8077 8.208 99.5677 8.352C99.3277 8.488 99.1077 8.612 98.9077 8.724C98.7157 8.836 98.4997 8.892 98.2597 8.892C98.0517 8.892 97.8757 8.84 97.7317 8.736C97.5877 8.624 97.4717 8.496 97.3837 8.352L96.8557 7.404Z" fill="white"/>
</svg>
